<?xml version="1.0" encoding="utf-8"?>
<!-- Uploaded to: SVG Repo, www.svgrepo.com, Generator: SVG Repo Mixer Tools -->
<svg width="800px" height="800px" viewBox="0 0 24 24" fill="none" xmlns="http://www.w3.org/2000/svg">
<g id="style=bulk">
<g id="message">
<path id="vector (Stroke)" fill-rule="evenodd" clip-rule="evenodd" d="M17.3938 1.44593C20.5863 0.43971 23.5345 3.43985 22.5618 6.62281L18.4449 19.8408C17.2516 23.6582 11.8679 23.7517 10.5884 19.923L10.5881 19.9219L9.36535 16.3045L9.36293 16.2972C9.10562 15.5095 8.48677 14.9047 7.70334 14.644L7.70072 14.6431L4.07556 13.422C0.276533 12.1486 0.321194 6.75095 4.13385 5.55475L17.3918 1.44656L17.3938 1.44593Z" fill="#BFBFBF"/>
<path id="vector (Stroke)_2" fill-rule="evenodd" clip-rule="evenodd" d="M5.60304 10.4717C5.47081 10.8643 5.68183 11.2897 6.07437 11.4219L9.70325 12.6443C9.95495 12.728 10.1898 12.8475 10.4011 12.997C10.5369 13.0931 10.6629 13.2017 10.7774 13.3212C11.0389 13.594 11.241 13.9246 11.3628 14.2975L11.3652 14.3048L12.5888 17.9248C12.7215 18.3172 13.1471 18.5278 13.5395 18.3952C13.9319 18.2625 14.1425 17.8369 14.0099 17.4445L12.7874 13.8279C12.5941 13.2379 12.2734 12.7142 11.8604 12.2833C11.6795 12.0945 11.4809 11.9236 11.2677 11.7727C10.9363 11.5381 10.5695 11.3518 10.1782 11.2215C10.1778 11.2213 10.1773 11.2212 10.1769 11.221L6.55322 10.0004C6.16067 9.86815 5.73527 10.0792 5.60304 10.4717Z" fill="#000000"/>
</g>
</g>
</svg>